<svg width="197" height="329" viewBox="0 0 197 329" fill="none" xmlns="http://www.w3.org/2000/svg">
<path d="M81.1507 245.85C81.5388 162.701 81.5388 162.701 77.173 162.006C58.8783 159.094 47.2045 154.714 34.2304 145.894C16.8008 134.046 5.97886 117.878 1.62848 97.1881C-1.35846 82.9827 -0.313937 70.6685 5.40469 52.6694C11.2667 34.2189 11.4409 27.958 6.37611 17.7348L2.51258 9.9362L18.0286 4.34501C35.6481 -2.00418 35.3502 -2.06293 39.9173 8.66164C44.4281 19.254 43.9637 35.1791 38.6473 52.2191C33.3068 69.336 32.1694 77.4142 33.5975 88.0842C36.3659 108.768 49.1911 122.13 71.8607 127.948C84.1077 131.091 114.935 131.058 125.82 127.89C136.795 124.695 147.386 118.531 152.804 112.186C164.904 98.0141 167.088 79.7525 159.624 55.1428C152.844 32.7909 153.209 13.5828 160.609 3.20209C162.821 0.100521 162.821 0.100516 175.192 3.60533C197.695 9.98017 196.093 8.71599 191.525 16.4976C186.213 25.5456 186.376 32.8993 192.359 54.2735C199.19 78.6729 198.568 93.7587 189.909 113.749C183.873 127.686 169.579 142.494 155.357 149.546C144.219 155.069 125.111 161.386 119.546 161.386C113.075 161.386 112.417 162.215 113.478 169.033C114.01 172.449 114.478 209.839 114.519 252.122L114.594 329H97.6782H80.7627L81.1507 245.85ZM2.33183 286.767L2.33183 270.929H32.892H63.4522V286.767V302.604H32.892H2.33183L2.33183 286.767ZM132.057 286.767V270.929H162.617H193.177V286.767V302.604H162.617H132.057V286.767ZM2.33183 235.295L2.33183 219.457H32.892H63.4522V235.295V251.132H32.892H2.33183L2.33183 235.295ZM132.057 235.295V219.457H162.617H193.177V235.295V251.132H162.617H132.057V235.295ZM2.33183 183.823L2.33183 167.985H32.892H63.4522V183.823L63.4522 199.66H32.892H2.33183L2.33183 183.823ZM132.057 183.823V167.985H162.617H193.177V183.823V199.66H162.617H132.057V183.823ZM111.018 110.904C107.485 103.464 102.734 91.8531 100.46 85.1026L96.3268 72.829L94.2012 81.1432C91.6558 91.0998 77.2582 123.144 75.3791 123.035C74.6507 122.993 68.0375 119.875 60.6832 116.106L47.3118 109.254L65.049 73.9819L82.7861 38.7095L96.5612 38.6774L110.336 38.6452L128.145 73.7464C137.94 93.0521 145.774 109.013 145.554 109.216C144.643 110.053 118.696 124.432 118.095 124.432C117.736 124.432 114.551 118.344 111.018 110.904Z" fill="black"/>
</svg>
