<svg width="30" height="30" viewBox="0 0 30 30" fill="none" xmlns="http://www.w3.org/2000/svg">
<rect width="30" height="30" rx="6" fill="#C44536"/>
<path d="M13.9432 19.9453C13.9668 14.8906 13.9668 14.8906 13.7009 14.8484C12.5865 14.6714 11.8754 14.4051 11.0851 13.869C10.0234 13.1487 9.36419 12.1658 9.0992 10.9081C8.91725 10.0445 8.98088 9.29596 9.32922 8.20179C9.6863 7.08018 9.6969 6.69957 9.38839 6.0781L9.15305 5.60402L10.0982 5.26413C11.1715 4.87817 11.1533 4.87459 11.4315 5.52654C11.7063 6.17046 11.678 7.13855 11.3541 8.17441C11.0288 9.21495 10.9596 9.70603 11.0465 10.3547C11.2152 11.612 11.9964 12.4243 13.3773 12.778C14.1233 12.9691 16.0011 12.9671 16.6642 12.7744C17.3327 12.5802 17.9778 12.2056 18.3079 11.8198C19.0449 10.9583 19.1779 9.84817 18.7233 8.35215C18.3103 6.99337 18.3325 5.8257 18.7833 5.19466C18.918 5.00611 18.918 5.00611 19.6716 5.21917C21.0423 5.6067 20.9448 5.52985 20.6665 6.00289C20.3429 6.55292 20.3528 6.99996 20.7173 8.2993C21.1334 9.78255 21.0955 10.6996 20.5681 11.9148C20.2004 12.762 19.3297 13.6623 18.4634 14.0909C17.7849 14.4267 16.621 14.8107 16.282 14.8107C15.8878 14.8107 15.8477 14.8611 15.9124 15.2755C15.9448 15.4832 15.9733 17.7562 15.9758 20.3266L15.9803 25H14.9499H13.9196L13.9432 19.9453ZM9.14204 22.4326V21.4699H11.0036H12.8651V22.4326V23.3954H11.0036H9.14204V22.4326ZM17.0441 22.4326V21.4699H18.9056H20.7671V22.4326V23.3954H18.9056H17.0441V22.4326ZM9.14204 19.3036V18.3409H11.0036H12.8651V19.3036V20.2664H11.0036H9.14204V19.3036ZM17.0441 19.3036V18.3409H18.9056H20.7671V19.3036V20.2664H18.9056H17.0441V19.3036ZM9.14204 16.1746V15.2119H11.0036H12.8651V16.1746V17.1374H11.0036H9.14204V16.1746ZM17.0441 16.1746V15.2119H18.9056H20.7671V16.1746V17.1374H18.9056H17.0441V16.1746ZM15.7625 11.7419C15.5473 11.2896 15.2579 10.5838 15.1194 10.1734L14.8676 9.42729L14.7381 9.93272C14.5831 10.538 13.7061 12.486 13.5916 12.4794C13.5472 12.4768 13.1444 12.2872 12.6964 12.0581L11.8819 11.6416L12.9624 9.49738L14.0428 7.35316L14.8819 7.35121L15.721 7.34925L16.8058 9.48307C17.4024 10.6567 17.8796 11.6269 17.8662 11.6392C17.8108 11.6901 16.2302 12.5642 16.1936 12.5642C16.1717 12.5642 15.9777 12.1942 15.7625 11.7419Z" fill="white"/>
</svg>
